<svg xmlns="http://www.w3.org/2000/svg" viewBox="0 0 128 128" fill="none"><defs><linearGradient id="g" x1="25" y1="18" x2="101" y2="109"><stop stop-color="#13352F"/><stop offset="1" stop-color="#D4AF37"/></linearGradient></defs><path d="M20 48V29a9 9 0 0 1 9-9h19M80 20h19a9 9 0 0 1 9 9v19M108 80v19a9 9 0 0 1-9 9H80M48 108H29a9 9 0 0 1-9-9V80" stroke="url(#g)" stroke-width="5" stroke-linecap="round"/><path d="M45 31h28l19 19v38H45V31Z" stroke="url(#g)" stroke-width="4" stroke-linejoin="round"/><path d="M73 31v20h19M55 59h24M55 68h24M55 77h15" stroke="#13352F" stroke-width="3" stroke-linecap="round"/><path d="M76 82c9-2 16-7 20-12 4 5 11 10 20 12v15c0 13-8 22-20 27-12-5-20-14-20-27V82Z" fill="#E7F3F0" stroke="url(#g)" stroke-width="4"/><path d="m87 96 6 6 12-14" stroke="#13352F" stroke-width="4" stroke-linecap="round"/><path d="M15 65h12m-6-6v12m8 5 10 6m-3-14 3 14" stroke="#1FA38A" stroke-width="3"/><circle cx="16" cy="65" r="5" fill="#1FA38A"/><circle cx="30" cy="77" r="5" fill="#1FA38A"/><circle cx="41" cy="84" r="4" fill="#1FA38A"/></svg>